<?xml version="1.0" encoding="UTF-8" standalone="no"?>
<svg width="264px" height="82px" viewBox="0 0 264 82" version="1.1" xmlns="http://www.w3.org/2000/svg" xmlns:xlink="http://www.w3.org/1999/xlink" xmlns:sketch="http://www.bohemiancoding.com/sketch/ns">
    <title>logo</title>
    <description>Created with Sketch (http://www.bohemiancoding.com/sketch)</description>
    <defs></defs>
    <g id="Page 1" stroke="none" stroke-width="1" fill="none" fill-rule="evenodd">
        <g>
            <path d="M5.785,40 L6.473,36.044 L9.999,36.044 L13.224,17.769 L9.698,17.769 L10.386,13.813 L22.727,13.813 C29.607,13.813 32.359,17.425 32.359,21.467 C32.359,25.552 29.521,28.562 25.221,29.637 L28.059,36.044 L31.456,36.044 L30.768,40 L24.533,40 L20.319,30.411 L15.976,30.411 L14.987,36.044 L18.513,36.044 L17.825,40 Z M16.664,26.541 L20.878,26.541 C25.737,26.541 27.285,23.832 27.285,21.51 C27.285,19.446 26.038,17.769 22.426,17.769 L18.212,17.769 Z M42.808,40.473 C38.121,40.473 34.122,38.065 34.122,32.045 C34.122,25.638 38.723,20.951 44.786,20.951 C48.914,20.951 50.935,23.144 50.935,26.068 C50.935,31.056 45.173,32.69 38.938,33.034 C39.282,35.829 41.002,36.775 43.496,36.775 C45.732,36.775 47.667,36.001 49.645,35.141 L48.914,39.011 C47.366,39.828 45.259,40.473 42.808,40.473 Z M39.196,29.508 C43.023,29.336 46.506,28.476 46.506,26.154 C46.506,25.294 46.033,24.477 44.485,24.477 C41.991,24.477 39.97,26.627 39.196,29.508 Z M60.051,40.473 C56.095,40.473 52.956,37.592 52.956,32.002 C52.956,25.337 57.385,20.951 62.588,20.951 C65.168,20.951 66.931,22.026 68.049,23.703 L69.898,13.426 L66.329,13.426 L67.017,9.599 L75.445,9.599 L70.973,34.84 C70.715,36.345 71.274,36.818 72.435,36.818 C73.037,36.818 73.725,36.689 74.327,36.474 L73.725,40.043 C72.908,40.258 71.79,40.473 70.629,40.473 C67.705,40.473 66.673,39.183 66.372,37.42 C64.781,39.269 62.631,40.473 60.051,40.473 Z M61.771,36.818 C65.082,36.818 67.404,33.507 67.404,29.508 C67.404,26.412 66.028,24.606 63.577,24.606 C60.266,24.606 57.944,27.917 57.944,31.916 C57.944,35.012 59.32,36.818 61.771,36.818 Z M83.658,40.473 C79.702,40.473 76.563,37.592 76.563,32.002 C76.563,25.337 80.992,20.951 86.195,20.951 C88.775,20.951 90.538,22.026 91.656,23.703 L93.505,13.426 L89.936,13.426 L90.624,9.599 L99.052,9.599 L94.58,34.84 C94.322,36.345 94.881,36.818 96.042,36.818 C96.644,36.818 97.332,36.689 97.934,36.474 L97.332,40.043 C96.515,40.258 95.397,40.473 94.236,40.473 C91.312,40.473 90.28,39.183 89.979,37.42 C88.388,39.269 86.238,40.473 83.658,40.473 Z M85.378,36.818 C88.689,36.818 91.011,33.507 91.011,29.508 C91.011,26.412 89.635,24.606 87.184,24.606 C83.873,24.606 81.551,27.917 81.551,31.916 C81.551,35.012 82.927,36.818 85.378,36.818 Z M106.19,40.473 C101.847,40.473 101.159,37.592 101.675,34.625 L103.352,25.251 L100.256,25.251 L100.944,21.424 L108.899,21.424 L106.491,34.84 C106.233,36.345 106.792,36.818 107.91,36.818 C108.555,36.818 109.243,36.689 109.845,36.474 L109.243,40.043 C108.426,40.258 107.308,40.473 106.19,40.473 Z M107.222,18.629 C105.459,18.629 103.997,17.167 103.997,15.404 C103.997,13.641 105.459,12.179 107.222,12.179 C108.985,12.179 110.447,13.641 110.447,15.404 C110.447,17.167 108.985,18.629 107.222,18.629 Z M118.66,40.473 C114.231,40.473 113.07,37.764 113.629,34.582 L115.263,25.251 L112.081,25.251 L112.769,21.424 L115.951,21.424 L116.768,16.694 L121.67,16.694 L120.81,21.424 L125.755,21.424 L125.067,25.251 L120.165,25.251 L118.445,35.012 C118.23,36.345 119.09,36.732 120.38,36.732 C121.885,36.732 123.175,36.173 124.035,35.872 L123.39,39.441 C122.186,40 120.509,40.473 118.66,40.473 Z M134.785,40 L135.473,36.044 L138.999,36.044 L142.224,17.769 L138.698,17.769 L139.386,13.813 L152.071,13.813 L151.383,17.769 L147.212,17.769 L143.987,36.044 L152.458,36.044 L153.232,31.83 L157.833,31.83 L156.371,40 Z M168.368,40.473 C163.165,40.473 159.682,37.592 159.682,32.045 C159.682,26.326 163.337,20.951 170.475,20.951 C175.678,20.951 179.161,23.832 179.161,29.379 C179.161,35.098 175.506,40.473 168.368,40.473 Z M168.497,36.818 C172.195,36.818 174.087,32.948 174.087,29.336 C174.087,26.584 173.012,24.606 170.346,24.606 C166.648,24.606 164.756,28.476 164.756,32.088 C164.756,34.84 165.831,36.818 168.497,36.818 Z M186.6,49.03 C179.677,49.03 177.57,46.579 177.57,44.128 C177.57,40.946 181.01,39.054 183.203,38.065 C183.031,37.721 182.988,37.377 182.988,36.947 C182.988,35.657 183.805,34.582 184.708,33.765 C183.203,32.733 182.3,31.099 182.3,28.906 C182.3,24.907 185.439,20.951 190.943,20.951 C192.018,20.951 193.05,21.123 193.996,21.424 L201.564,21.424 L200.876,25.208 L197.866,24.993 C198.124,25.681 198.253,26.369 198.253,27.186 C198.253,31.185 195.114,35.141 189.61,35.141 C188.836,35.141 188.105,35.055 187.374,34.926 C187.245,35.141 187.159,35.356 187.159,35.528 C187.159,36.646 190.04,37.334 192.061,38.194 C194.211,39.097 196.361,40.602 196.361,43.311 C196.361,45.547 194.856,49.03 186.6,49.03 Z M190.986,24.305 C188.191,24.305 186.772,26.627 186.772,28.906 C186.772,30.54 187.546,31.787 189.567,31.787 C192.362,31.787 193.781,29.465 193.781,27.186 C193.781,25.552 193.007,24.305 190.986,24.305 Z M186.944,45.461 C190.685,45.461 191.631,44.343 191.631,43.612 C191.631,42.623 189.868,41.892 187.976,41.161 C187.03,40.774 186.17,40.43 185.396,40.043 C183.934,40.86 182.257,42.021 182.257,43.397 C182.257,44.73 183.934,45.461 186.944,45.461 Z M206.638,49.03 C199.715,49.03 197.608,46.579 197.608,44.128 C197.608,40.946 201.048,39.054 203.241,38.065 C203.069,37.721 203.026,37.377 203.026,36.947 C203.026,35.657 203.843,34.582 204.746,33.765 C203.241,32.733 202.338,31.099 202.338,28.906 C202.338,24.907 205.477,20.951 210.981,20.951 C212.056,20.951 213.088,21.123 214.034,21.424 L221.602,21.424 L220.914,25.208 L217.904,24.993 C218.162,25.681 218.291,26.369 218.291,27.186 C218.291,31.185 215.152,35.141 209.648,35.141 C208.874,35.141 208.143,35.055 207.412,34.926 C207.283,35.141 207.197,35.356 207.197,35.528 C207.197,36.646 210.078,37.334 212.099,38.194 C214.249,39.097 216.399,40.602 216.399,43.311 C216.399,45.547 214.894,49.03 206.638,49.03 Z M211.024,24.305 C208.229,24.305 206.81,26.627 206.81,28.906 C206.81,30.54 207.584,31.787 209.605,31.787 C212.4,31.787 213.819,29.465 213.819,27.186 C213.819,25.552 213.045,24.305 211.024,24.305 Z M206.982,45.461 C210.723,45.461 211.669,44.343 211.669,43.612 C211.669,42.623 209.906,41.892 208.014,41.161 C207.068,40.774 206.208,40.43 205.434,40.043 C203.972,40.86 202.295,42.021 202.295,43.397 C202.295,44.73 203.972,45.461 206.982,45.461 Z M230.245,40.473 C225.558,40.473 221.559,38.065 221.559,32.045 C221.559,25.638 226.16,20.951 232.223,20.951 C236.351,20.951 238.372,23.144 238.372,26.068 C238.372,31.056 232.61,32.69 226.375,33.034 C226.719,35.829 228.439,36.775 230.933,36.775 C233.169,36.775 235.104,36.001 237.082,35.141 L236.351,39.011 C234.803,39.828 232.696,40.473 230.245,40.473 Z M226.633,29.508 C230.46,29.336 233.943,28.476 233.943,26.154 C233.943,25.294 233.47,24.477 231.922,24.477 C229.428,24.477 227.407,26.627 226.633,29.508 Z M243.833,25.251 L240.823,25.251 L241.511,21.424 L249.165,21.424 L248.649,24.391 C250.154,22.671 252.261,20.951 254.884,20.951 C256.819,20.951 258.496,21.897 258.496,24.649 C258.496,25.81 258.195,27.186 257.894,28.046 L253.465,27.831 C253.551,27.444 253.766,26.799 253.766,26.197 C253.766,25.595 253.551,25.122 252.691,25.122 C251.186,25.122 249.509,26.627 248.176,28.089 L246.069,40 L241.21,40 Z M243.833,25.251" id="Reddit Logger" fill="#E6351D"></path>
            <path d="M57.545,69 L57.545,64.86 L53.375,58.5 L55.55,58.5 L58.49,63.15 L61.46,58.5 L63.575,58.5 L59.405,64.815 L59.405,69 Z M72.445,67.485 C72.9650026,67.485 73.4424978,67.387501 73.8775,67.1925 C74.3125022,66.997499 74.6849984,66.7325017 74.995,66.3975 C75.3050016,66.0624983 75.5474991,65.6700022 75.7225,65.22 C75.8975009,64.7699978 75.985,64.2900025 75.985,63.78 L75.985,63.75 C75.985,63.2399975 75.8975009,62.7575023 75.7225,62.3025 C75.5474991,61.8474977 75.3025016,61.4525017 74.9875,61.1175 C74.6724984,60.7824983 74.2950022,60.515001 73.855,60.315 C73.4149978,60.114999 72.9350026,60.015 72.415,60.015 C71.8949974,60.015 71.4175022,60.112499 70.9825,60.3075 C70.5474978,60.502501 70.1750016,60.7674983 69.865,61.1025 C69.5549984,61.4375017 69.3125009,61.8299978 69.1375,62.28 C68.9624991,62.7300022 68.875,63.2099975 68.875,63.72 L68.875,63.75 C68.875,64.2600025 68.9624991,64.7424977 69.1375,65.1975 C69.3125009,65.6525023 69.5574984,66.0474983 69.8725,66.3825 C70.1875016,66.7175017 70.5649978,66.984999 71.005,67.185 C71.4450022,67.385001 71.9249974,67.485 72.445,67.485 Z M72.415,69.18 C71.604996,69.18 70.8650033,69.0375014 70.195,68.7525 C69.5249967,68.4674986 68.9500024,68.0800024 68.47,67.59 C67.9899976,67.0999975 67.6150014,66.5275033 67.345,65.8725 C67.0749986,65.2174967 66.94,64.5200037 66.94,63.78 L66.94,63.75 C66.94,63.0099963 67.0749986,62.3125033 67.345,61.6575 C67.6150014,61.0024967 67.9949975,60.4275025 68.485,59.9325 C68.9750025,59.4374975 69.5549967,59.0450015 70.225,58.755 C70.8950033,58.4649986 71.634996,58.32 72.445,58.32 C73.255004,58.32 73.9949967,58.4624986 74.665,58.7475 C75.3350033,59.0325014 75.9099976,59.4199976 76.39,59.91 C76.8700024,60.4000025 77.2449986,60.9724967 77.515,61.6275 C77.7850014,62.2825033 77.92,62.9799963 77.92,63.72 L77.92,63.75 C77.92,64.4900037 77.7850014,65.1874967 77.515,65.8425 C77.2449986,66.4975033 76.8650024,67.0724975 76.375,67.5675 C75.8849976,68.0625025 75.3050033,68.4549985 74.635,68.745 C73.9649967,69.0350014 73.225004,69.18 72.415,69.18 Z M86.67,69.165 C85.9899966,69.165 85.3750027,69.067501 84.825,68.8725 C84.2749973,68.677499 83.8050019,68.385002 83.415,67.995 C83.024998,67.6049981 82.7250011,67.1225029 82.515,66.5475 C82.3049989,65.9724971 82.2,65.3050038 82.2,64.545 L82.2,58.5 L84.045,58.5 L84.045,64.47 C84.045,65.4500049 84.2799977,66.1949975 84.75,66.705 C85.2200024,67.2150025 85.8699959,67.47 86.7,67.47 C87.5200041,67.47 88.1649977,67.2250025 88.635,66.735 C89.1050024,66.2449975 89.34,65.5150048 89.34,64.545 L89.34,58.5 L91.185,58.5 L91.185,64.455 C91.185,65.2350039 91.0775011,65.9199971 90.8625,66.51 C90.6474989,67.100003 90.345002,67.592498 89.955,67.9875 C89.5649981,68.382502 89.0925028,68.677499 88.5375,68.8725 C87.9824972,69.067501 87.3600034,69.165 86.67,69.165 Z M97.775,63.705 L100.475,63.705 C101.135003,63.705 101.659998,63.5475016 102.05,63.2325 C102.440002,62.9174984 102.635,62.4900027 102.635,61.95 L102.635,61.92 C102.635,61.3499972 102.445002,60.9175015 102.065,60.6225 C101.684998,60.3274985 101.150003,60.18 100.46,60.18 L97.775,60.18 Z M95.93,58.5 L100.61,58.5 C101.270003,58.5 101.854997,58.5924991 102.365,58.7775 C102.875003,58.9625009 103.299998,59.2199983 103.64,59.55 C103.920001,59.8400015 104.134999,60.1749981 104.285,60.555 C104.435001,60.9350019 104.51,61.3549977 104.51,61.815 L104.51,61.845 C104.51,62.2750021 104.447501,62.6624983 104.3225,63.0075 C104.197499,63.3525017 104.025001,63.6574987 103.805,63.9225 C103.584999,64.1875013 103.322502,64.4124991 103.0175,64.5975 C102.712498,64.7825009 102.375002,64.9249995 102.005,65.025 L104.84,69 L102.665,69 L100.085,65.34 L100.055,65.34 L97.775,65.34 L97.775,69 L95.93,69 Z M117.33,67.32 L119.4,67.32 C119.950003,67.32 120.449998,67.2325009 120.9,67.0575 C121.350002,66.8824991 121.732498,66.6375016 122.0475,66.3225 C122.362502,66.0074984 122.607499,65.6325022 122.7825,65.1975 C122.957501,64.7624978 123.045,64.2900025 123.045,63.78 L123.045,63.75 C123.045,63.2399975 122.957501,62.7650022 122.7825,62.325 C122.607499,61.8849978 122.362502,61.5075016 122.0475,61.1925 C121.732498,60.8774984 121.350002,60.6300009 120.9,60.45 C120.449998,60.2699991 119.950003,60.18 119.4,60.18 L117.33,60.18 Z M115.485,58.5 L119.4,58.5 C120.220004,58.5 120.972497,58.6324987 121.6575,58.8975 C122.342503,59.1625013 122.932498,59.5299976 123.4275,60 C123.922502,60.4700024 124.304999,61.0224968 124.575,61.6575 C124.845001,62.2925032 124.98,62.9799963 124.98,63.72 L124.98,63.75 C124.98,64.4900037 124.845001,65.1799968 124.575,65.82 C124.304999,66.4600032 123.922502,67.0149976 123.4275,67.485 C122.932498,67.9550024 122.342503,68.3249986 121.6575,68.595 C120.972497,68.8650014 120.220004,69 119.4,69 L115.485,69 Z M132.17,64.83 L135.785,64.83 L133.97,60.63 Z M128.525,69 L133.145,58.425 L134.855,58.425 L139.475,69 L137.525,69 L136.46,66.465 L131.495,66.465 L130.415,69 Z M143.59,58.5 L145.435,58.5 L145.435,69 L143.59,69 Z M150.45,58.5 L152.295,58.5 L152.295,67.32 L157.815,67.32 L157.815,69 L150.45,69 Z M165.035,64.86 L160.865,58.5 L163.04,58.5 L165.98,63.15 L168.95,58.5 L171.065,58.5 L166.895,64.815 L166.895,69 L165.035,69 Z M181.395,58.5 L189.21,58.5 L189.21,60.18 L183.24,60.18 L183.24,63.045 L188.535,63.045 L188.535,64.725 L183.24,64.725 L183.24,69 L181.395,69 Z M193.55,58.5 L195.395,58.5 L195.395,69 L193.55,69 Z M199.615,69 L203.44,63.66 L199.765,58.5 L201.94,58.5 L204.55,62.265 L207.175,58.5 L209.29,58.5 L205.63,63.63 L209.44,69 L207.265,69 L204.505,65.025 L201.73,69 Z M199.615,69" id="YOUR DAILY FIX" fill="#8A8986"></path>
        </g>
    </g>
</svg>